<?xml version="1.0" encoding="UTF-8" standalone="no"?>
<!-- Generator: Adobe Illustrator 18.0.0, SVG Export Plug-In . SVG Version: 6.00 Build 0)  -->

<svg version="1.1" id="Capa_1" x="0px" y="0px" viewBox="0 0 463.816 463.816" style="enable-background:new 0 0 463.816 463.816;" xml:space="preserve" sodipodi:docname="ship-in-a-bottle-svgrepo-com.svg" inkscape:version="1.1.1 (c3084ef, 2021-09-22)" xmlns:inkscape="http://www.inkscape.org/namespaces/inkscape" xmlns:sodipodi="http://sodipodi.sourceforge.net/DTD/sodipodi-0.dtd" xmlns="http://www.w3.org/2000/svg" xmlns:svg="http://www.w3.org/2000/svg">
   <defs id="defs428" />
   <sodipodi:namedview id="namedview426" pagecolor="#ffffff" bordercolor="#666666" borderopacity="1.0" inkscape:pageshadow="2" inkscape:pageopacity="0.0" inkscape:pagecheckerboard="0" showgrid="false" inkscape:zoom="1.0215205" inkscape:cx="188.44458" inkscape:cy="251.58575" inkscape:window-width="1296" inkscape:window-height="794" inkscape:window-x="0" inkscape:window-y="25" inkscape:window-maximized="0" inkscape:current-layer="g388" />
   <g id="g393">
      <g id="XMLID_39_">
         <g id="g388">
            <rect x="415.11099" y="184.187" style="fill:#5d9b54" width="33.450001" height="95.440002" id="rect364" />

            <path style="fill:#77ce6f" d="m 400.111,255.847 v 8.95 c -13.32,0.88 -26.26,5.75 -36.83,13.98 -11.7,9.13 -20.14,22.07 -23.76,36.45 -5.83,23.11 -26.54,39.25 -50.37,39.25 H 67.191 c -28.64,0 -51.94,-23.3 -51.94,-51.94 v -141.26 c 0,-28.64 23.3,-51.94 51.94,-51.94 h 221.96 c 11.51,0 22.85,3.9 31.93,10.96 9.08,7.08 15.62,17.13 18.44,28.29 7.15,28.37 31.72,48.58 60.59,50.42 v 8.95 c -17.88,-1 -34.8,-8.26 -47.83,-20.59 -3.02,-2.84 -7.76,-2.71 -10.61,0.3 -2.84,3.01 -2.71,7.76 0.3,10.6 15.82,14.97 36.41,23.69 58.14,24.71 v 17.85 c -19.28,0.9 -37.4,7.72 -52.5,19.8 -15.59,12.48 -26.41,29.34 -31.3,48.75 -3.14,12.46 -14.31,21.16 -27.16,21.16 h -177.91 c -4.14,0 -7.5,3.36 -7.5,7.5 0,4.14 3.36,7.5 7.5,7.5 h 177.91 c 19.73,0 36.88,-13.36 41.7,-32.49 8.09,-32.1 36.39,-55.33 69.26,-57.2 z m -63.66,-74.72 c 3.57,-2.11 4.75,-6.71 2.65,-10.27 -3.69,-6.25 -6.46,-13.01 -8.25,-20.09 -4.82,-19.13 -21.97,-32.49 -41.7,-32.49 h -24.92 c -4.14,0 -7.5,3.35 -7.5,7.5 0,4.14 3.36,7.5 7.5,7.5 h 24.92 c 12.85,0 24.02,8.7 27.16,21.16 2.13,8.47 5.45,16.56 9.87,24.04 1.4,2.37 3.9,3.69 6.47,3.69 1.29,0 2.61,-0.34 3.8,-1.04 z m -52.27,52.64 c 0,-4.15 -3.36,-7.5 -7.5,-7.5 h -38.04 c -4.14,0 -7.5,3.35 -7.5,7.5 0,5.86 -4.77,10.63 -10.63,10.63 h -16.14 v -40.23 h 33.42 c 4.15,0 7.5,-3.36 7.5,-7.5 0,-4.14 -3.35,-7.5 -7.5,-7.5 h -33.42 v -9.94 h 16.89 c 4.14,0 7.5,-3.35 7.5,-7.5 0,-4.14 -3.36,-7.5 -7.5,-7.5 h -16.89 v -14.49 c 0,-4.14 -3.36,-7.5 -7.5,-7.5 -4.14,0 -7.5,3.36 -7.5,7.5 v 14.49 h -16.89 c -4.14,0 -7.5,3.36 -7.5,7.5 0,4.15 3.36,7.5 7.5,7.5 h 16.89 v 9.94 h -33.42 c -4.14,0 -7.5,3.36 -7.5,7.5 0,4.14 3.36,7.5 7.5,7.5 h 33.42 v 40.23 h -9.71 c -6.94,0 -12.58,-5.64 -12.58,-12.58 v -14.75 c 0,-4.15 -3.36,-7.5 -7.5,-7.5 h -58.27 c -4.14,0 -7.5,3.35 -7.5,7.5 v 34.83 c 0,4.14 3.36,7.5 7.5,7.5 h 10 c 1.86,16.78 8.11,30.47 18.63,40.76 14.53,14.21 36.93,21.42 66.57,21.42 48.34,0 87.67,-39.39 87.67,-87.81 z m -39.44,-107.99 c 0,-4.15 -3.36,-7.5 -7.5,-7.5 h -19.5 c -4.14,0 -7.5,3.35 -7.5,7.5 0,4.14 3.36,7.5 7.5,7.5 h 19.5 c 4.14,0 7.5,-3.36 7.5,-7.5 z m -40.5,0 c 0,-4.15 -3.36,-7.5 -7.5,-7.5 H 67.191 c -23.71,0 -43.01,19.29 -43.01,43 v 141.26 c 0,23.71 19.3,43 43.01,43 h 15.55 c 4.14,0 7.5,-3.36 7.5,-7.5 0,-4.14 -3.36,-7.5 -7.5,-7.5 h -15.55 c -15.44,0 -28.01,-12.56 -28.01,-28 v -141.26 c 0,-15.44 12.57,-28 28.01,-28 h 129.55 c 4.14,0 7.5,-3.36 7.5,-7.5 z" id="path368" />
            <path style="fill:#4d4d4d" d="m 463.561,176.687 v 110.44 c 0,4.14 -3.35,7.5 -7.5,7.5 h -48.45 c -4.14,0 -7.5,-3.36 -7.5,-7.5 v -7.3 c -9.99,0.85 -19.66,4.6 -27.61,10.79 -9.08,7.08 -15.63,17.12 -18.44,28.28 -7.5,29.78 -34.2,50.58 -64.91,50.58 H 67.191 c -36.91,0 -66.94,-30.03 -66.94,-66.94 v -141.26 c 0,-36.91 30.03,-66.94 66.94,-66.94 h 221.96 c 14.83,0 29.45,5.02 41.15,14.13 11.7,9.12 20.14,22.07 23.76,36.45 5.47,21.7 24.07,37.25 46.05,39.06 v -7.29 c 0,-4.15 3.36,-7.5 7.5,-7.5 h 48.45 c 4.15,0 7.5,3.35 7.5,7.5 z m -15,102.94 v -95.44 h -33.45 v 95.44 z m -48.45,-14.83 v -8.95 c -32.87,1.87 -61.17,25.1 -69.26,57.2 -4.82,19.13 -21.97,32.49 -41.7,32.49 h -177.91 c -71.868355,0 -58.231886,-3.87504 -58.231886,-8.01504 0,-4.14 -11.061246,-6.98496 58.231886,-6.98496 h 177.91 c 12.85,0 24.02,-8.7 27.16,-21.16 4.89,-19.41 15.71,-36.27 31.3,-48.75 15.1,-12.08 33.22,-18.9 52.5,-19.8 v -17.85 c -21.73,-1.02 -42.32,-9.74 -58.14,-24.71 -3.01,-2.84 -35.36811,-41.13811 -5.52,-17.14 -22.65005,-44.68749 12.81,3.4 15.83,6.24 13.03,12.33 29.95,19.59 47.83,20.59 v -8.95 c -28.87,-1.84 -53.44,-22.05 -60.59,-50.42 -2.82,-11.16 -9.36,-21.21 -18.44,-28.29 -9.08,-7.06 -20.42,-10.96 -31.93,-10.96 H 67.191 c -28.64,0 -51.94,23.3 -51.94,51.94 v 141.26 c 0,28.64 23.3,51.94 51.94,51.94 h 221.96 c 23.83,0 44.54,-16.14 50.37,-39.25 3.62,-14.38 12.06,-27.32 23.76,-36.45 10.57,-8.23 23.51,-13.1 36.83,-13.98 z" id="path370" sodipodi:nodetypes="ssssscccsssssscccssssccccccccssssscccccccccccssssssccc" />
            <path style="fill:#4d4d4d" d="m 339.101,170.857 c 2.1,3.56 0.92,8.16 -2.65,10.27 -1.19,0.7 -2.51,1.04 -3.8,1.04 -2.57,0 -5.07,-1.32 -6.47,-3.69 -4.42,-7.48 -7.74,-15.57 -9.87,-24.04 -3.14,-12.46 -14.31,-21.16 -27.16,-21.16 h -24.92 c -4.14,0 -7.5,-3.36 -7.5,-7.5 0,-4.15 3.36,-7.5 7.5,-7.5 h 24.92 c 19.73,0 36.88,13.36 41.7,32.49 1.79,7.08 4.56,13.84 8.25,20.09 z" id="path372" />

            <path style="fill:#4d4d4d;stroke-width:1.43445" d="m 252.82375,118.277 c 35.00039,0 21.5866,3.35 21.5866,7.5 0,4.14 15.2787,7.5 -21.5866,7.5 h -40.12423 c -8.51868,0 -45.27093,1.67525 -45.27093,-8.80544 0,-8.0663 36.75225,-6.19456 45.27093,-6.19456 z" id="path376" sodipodi:nodetypes="sssssss" />


            <path style="fill:#4d4d4d" d="m 196.741,118.277 c 4.14,0 7.5,3.35 7.5,7.5 0,4.14 -3.36,7.5 -7.5,7.5 H 67.191 c -15.44,0 -28.01,12.56 -28.01,28 v 141.26 c 0,15.44 12.57,28 28.01,28 h 15.55 c 4.14,0 43.81064,3.10248 43.81064,7.24248 0,4.14 18.01435,7.75752 -43.81064,7.75752 h -15.55 c -23.71,0 -43.01,-19.29 -43.01,-43 v -141.26 c 0,-23.71 19.3,-43 43.01,-43 z" id="path382" sodipodi:nodetypes="sssssssssssssscs" />


            <rect style="fill:#77ce6f;fill-opacity:1;fill-rule:evenodd" id="rect1012" width="233.52974" height="184.06685" x="68.112839" y="138.65828" />
         </g>
         <g id="g390"></g>
      </g>
   </g>
   <g id="g395"></g>
   <g id="g397"></g>
   <g id="g399"></g>
   <g id="g401"></g>
   <g id="g403"></g>
   <g id="g405"></g>
   <g id="g407"></g>
   <g id="g409"></g>
   <g id="g411"></g>
   <g id="g413"></g>
   <g id="g415"></g>
   <g id="g417"></g>
   <g id="g419"></g>
   <g id="g421"></g>
   <g id="g423"></g>
</svg>