<?xml version="1.0" encoding="iso-8859-1"?>
<!-- Generator: Adobe Illustrator 18.0.0, SVG Export Plug-In . SVG Version: 6.00 Build 0)  -->
<!DOCTYPE svg PUBLIC "-//W3C//DTD SVG 1.1//EN" "http://www.w3.org/Graphics/SVG/1.1/DTD/svg11.dtd">
<svg version="1.1" id="Capa_1" xmlns="http://www.w3.org/2000/svg" xmlns:xlink="http://www.w3.org/1999/xlink" x="0px" y="0px" viewBox="0 0 448.978 448.978" style="enable-background:new 0 0 448.978 448.978;" xml:space="preserve">
	<g id="XMLID_13_">
		<path style="fill:#4D4D4D;" d="M441.232,249.095c4.14,0,7.5,3.36,7.5,7.5c0,4.15-3.36,7.5-7.5,7.5c-5.53,0-7.88,1.51-11.42,3.8
			c-4.28,2.77-9.6,6.2-19.55,6.2c-9.96,0-15.28-3.43-19.56-6.2c-3.54-2.29-5.88-3.8-11.41-3.8s-7.87,1.51-11.41,3.8
			c-4.28,2.77-9.6,6.2-19.55,6.2c-9.96,0-15.28-3.43-19.56-6.2c-3.34-2.16-5.62-3.62-10.51-3.78l-142.63,142.63
			c-5.52,5.52-12.78,8.28-20.03,8.28s-14.5-2.76-20.02-8.28l-80.52-80.51c-5.34-5.35-8.29-12.47-8.29-20.03
			c0-7.57,2.95-14.68,8.29-20.03l21.05-21.04c-1.72-0.66-3.68-1.04-6.44-1.04c-5.53,0-7.87,1.51-11.41,3.8
			c-4.28,2.77-9.6,6.2-19.55,6.2s-15.28-3.43-19.55-6.2c-3.54-2.29-5.88-3.8-11.41-3.8c-4.14,0-7.5-3.35-7.5-7.5
			c0-4.14,3.36-7.5,7.5-7.5c9.95,0,15.27,3.44,19.55,6.2c3.54,2.29,5.88,3.8,11.41,3.8s7.87-1.51,11.41-3.8
			c4.28-2.76,9.6-6.2,19.55-6.2c8.46,0,13.57,2.49,17.54,4.93l125.13-125.12c14.19-14.19,35.04-19.74,54.41-14.47
			c14.19,3.85,29.47-0.21,39.87-10.61l9.31-9.31l-1.87-1.87c-2.93-2.92-2.93-7.67,0-10.6l27.01-27.01c2.92-2.93,7.67-2.93,10.6,0
			l5.58,5.58l18.3-23.74c1.32-1.71,3.31-2.77,5.46-2.9c2.15-0.15,4.26,0.65,5.79,2.18l38.85,38.86c1.53,1.52,2.32,3.63,2.19,5.78
			c-0.14,2.15-1.2,4.14-2.91,5.46l-23.74,18.3l5.58,5.58c2.93,2.93,2.93,7.68,0,10.61l-27.01,27c-1.46,1.47-3.38,2.2-5.3,2.2
			s-3.84-0.73-5.3-2.2l-1.87-1.87l-9.31,9.31c-10.4,10.4-14.46,25.68-10.61,39.87c5.27,19.37-0.28,40.22-14.47,54.41l-2.27,2.27
			c2.46,1.1,4.47,2.39,6.28,3.56c3.55,2.29,5.89,3.8,11.42,3.8c5.52,0,7.87-1.51,11.41-3.8c4.27-2.76,9.6-6.2,19.55-6.2
			c9.95,0,15.28,3.44,19.55,6.2c3.55,2.29,5.89,3.8,11.42,3.8s7.87-1.51,11.41-3.8C425.952,252.535,431.272,249.095,441.232,249.095
			z M390.502,93.865l18.51-14.28l-26.79-26.79l-14.28,18.52L390.502,93.865z M374.462,131.835l16.4-16.4l-44.49-44.49l-16.4,16.4
			L374.462,131.835z M347.372,144.585l9.31-9.31l-30.15-30.15l-9.31,9.31c-14.19,14.19-35.04,19.74-54.41,14.47
			c-3.54-0.96-7.15-1.43-10.74-1.43c-10.78,0-21.32,4.23-29.13,12.04l-119.41,119.41c3.58-0.45,5.66-1.78,8.51-3.63
			c4.28-2.76,9.6-6.2,19.55-6.2s15.27,3.44,19.55,6.2c0.8,0.52,1.54,0.99,2.27,1.42l100.96-100.95c0-0.01,0.01-0.01,0.02-0.02
			c5.77-5.76,13.44-8.94,21.59-8.94c14.31,0,25.95,11.65,25.95,25.95c0,1.99-0.79,3.9-2.2,5.31l-20.49,20.49
			c0.83,0.09,1.65,0.12,2.5,0.14h0.01c7.63,0,14.79-2.97,20.18-8.35c5.38-5.39,8.35-12.55,8.35-20.18c0-2.07,0.84-3.94,2.19-5.3
			c1.36-1.36,3.24-2.2,5.31-2.2c4.14,0,7.5,3.36,7.5,7.5c0,11.62-4.52,22.54-12.72,30.76c-0.01,0.01-0.02,0.02-0.03,0.03
			l-49.02,49.02c5.1,1.2,8.53,3.42,11.47,5.32c3.55,2.29,5.89,3.8,11.42,3.8s7.87-1.51,11.41-3.8c3.37-2.17,7.4-4.76,13.82-5.76
			l10.66-10.67c10.4-10.4,14.47-25.68,10.61-39.87C327.632,179.625,333.182,158.775,347.372,144.585z M165.022,396.135
			l122.05-122.05c-0.22,0-0.44,0.01-0.67,0.01c-9.96,0-15.28-3.43-19.55-6.2c-3.55-2.29-5.89-3.8-11.42-3.8
			c-3.39,0-5.57,0.57-7.58,1.54l-80.48,80.48c-8.22,8.22-19.14,12.75-30.76,12.75c-0.02,0-0.04,0-0.07,0
			c-7.17,0-14.11-2.1-20.06-6.07c-10.16-6.76-16.22-18.07-16.22-30.26c-0.01-8.16,3.17-15.84,8.94-21.61l33.33-33.33
			c-3.29-2.12-5.66-3.5-10.94-3.5c-5.53,0-7.87,1.51-11.41,3.8c-4.28,2.77-9.6,6.2-19.55,6.2c-4.33,0-7.78-0.65-10.66-1.61
			l-24.3,24.3c-2.51,2.52-3.9,5.86-3.9,9.42s1.39,6.9,3.9,9.42l80.51,80.51c2.52,2.52,5.86,3.9,9.42,3.9
			S162.512,398.655,165.022,396.135z M265.452,191.125l21.13-21.12c-1.23-4.71-5.51-8.2-10.6-8.2c-4.16,0-8.06,1.62-11,4.56
			s-4.56,6.85-4.56,11C260.422,182.475,262.242,187.325,265.452,191.125z M238.782,253.495l39.93-39.93
			c-6.1-0.5-11.95-2.52-17.07-5.94c-7.97-5.31-13.4-13.42-15.38-22.55l-67.24,67.24c3.54-1.77,8.04-3.22,14.5-3.22
			c9.95,0,15.27,3.44,19.55,6.2c3.54,2.29,5.88,3.8,11.4,3.8c5.53,0,7.87-1.51,11.41-3.8
			C236.792,254.715,237.752,254.095,238.782,253.495z M156.762,335.515l61.87-61.87c-6.36-1.01-10.36-3.58-13.7-5.75
			c-3.55-2.29-5.89-3.8-11.41-3.8c-5.53,0-7.87,1.51-11.42,3.8c-4.27,2.77-9.59,6.2-19.55,6.2c-1.81,0-3.46-0.11-4.99-0.32
			l-37.75,37.76c-2.94,2.93-4.55,6.84-4.55,11c0,7.16,3.56,13.8,9.53,17.78c3.49,2.32,7.55,3.55,11.77,3.55c0.01,0,0.02,0,0.03,0
			C144.222,343.865,151.382,340.895,156.762,335.515z" />
		<polygon style="fill:#E0974F;" points="409.012,79.585 390.502,93.865 367.942,71.315 382.222,52.795 		" />

		<rect x="348.821" y="69.931" transform="matrix(0.7071 -0.7071 0.7071 0.7071 33.87 284.55)" style="fill:#5DAA52;" width="23.193" height="62.918" />
		<path style="fill:#77CE6F;" d="M356.682,135.275l-9.31,9.31c-14.19,14.19-19.74,35.04-14.47,54.41
			c3.86,14.19-0.21,29.47-10.61,39.87l-10.66,10.67c-6.42,1-10.45,3.59-13.82,5.76c-3.54,2.29-5.88,3.8-11.41,3.8
			s-7.87-1.51-11.42-3.8c-2.94-1.9-6.37-4.12-11.47-5.32l49.02-49.02c0.01-0.01,0.02-0.02,0.03-0.03
			c8.2-8.22,12.72-19.14,12.72-30.76c0-4.14-3.36-7.5-7.5-7.5c-2.07,0-3.95,0.84-5.31,2.2c-1.35,1.36-2.19,3.23-2.19,5.3
			c0,7.63-2.97,14.79-8.35,20.18c-5.39,5.38-12.55,8.35-20.18,8.35h-0.01c-0.85-0.02-1.67-0.05-2.5-0.14l20.49-20.49
			c1.41-1.41,2.2-3.32,2.2-5.31c0-14.3-11.64-25.95-25.95-25.95c-8.15,0-15.82,3.18-21.59,8.94c-0.01,0.01-0.02,0.01-0.02,0.02
			l-100.96,100.95c-0.73-0.43-1.47-0.9-2.27-1.42c-4.28-2.76-9.6-6.2-19.55-6.2s-15.27,3.44-19.55,6.2
			c-2.85,1.85-4.93,3.18-8.51,3.63l119.41-119.41c7.81-7.81,18.35-12.04,29.13-12.04c3.59,0,7.2,0.47,10.74,1.43
			c19.37,5.27,40.22-0.28,54.41-14.47l9.31-9.31L356.682,135.275z" />
		<path style="fill:#5DAA52;" d="M287.072,274.085l-122.05,122.05c-2.51,2.52-5.86,3.9-9.42,3.9s-6.9-1.38-9.42-3.9l-80.51-80.51
			c-2.51-2.52-3.9-5.86-3.9-9.42s1.39-6.9,3.9-9.42l24.3-24.3c2.88,0.96,6.33,1.61,10.66,1.61c9.95,0,15.27-3.43,19.55-6.2
			c3.54-2.29,5.88-3.8,11.41-3.8c5.28,0,7.65,1.38,10.94,3.5l-33.33,33.33c-5.77,5.77-8.95,13.45-8.94,21.61
			c0,12.19,6.06,23.5,16.22,30.26c5.95,3.97,12.89,6.07,20.06,6.07c0.03,0,0.05,0,0.07,0c11.62,0,22.54-4.53,30.76-12.75
			l80.48-80.48c2.01-0.97,4.19-1.54,7.58-1.54c5.53,0,7.87,1.51,11.42,3.8c4.27,2.77,9.59,6.2,19.55,6.2
			C286.632,274.095,286.852,274.085,287.072,274.085z" />
		<path style="fill:#C6B54F;" d="M286.582,170.005l-21.13,21.12c-3.21-3.8-5.03-8.65-5.03-13.76c0-4.15,1.62-8.06,4.56-11
			s6.84-4.56,11-4.56C281.072,161.805,285.352,165.295,286.582,170.005z" />
		<path style="fill:#E5D665;" d="M278.712,213.565l-39.93,39.93c-1.03,0.6-1.99,1.22-2.9,1.8c-3.54,2.29-5.88,3.8-11.41,3.8
			c-5.52,0-7.86-1.51-11.4-3.8c-4.28-2.76-9.6-6.2-19.55-6.2c-6.46,0-10.96,1.45-14.5,3.22l67.24-67.24
			c1.98,9.13,7.41,17.24,15.38,22.55C266.762,211.045,272.612,213.065,278.712,213.565z" />
		<path style="fill:#C6B54F;" d="M218.632,273.645l-61.87,61.87c-5.38,5.38-12.54,8.35-20.17,8.35c-0.01,0-0.02,0-0.03,0
			c-4.22,0-8.28-1.23-11.77-3.55c-5.97-3.98-9.53-10.62-9.53-17.78c0-4.16,1.61-8.07,4.55-11l37.75-37.76
			c1.53,0.21,3.18,0.32,4.99,0.32c9.96,0,15.28-3.43,19.55-6.2c3.55-2.29,5.89-3.8,11.42-3.8c5.52,0,7.86,1.51,11.41,3.8
			C208.272,270.065,212.272,272.635,218.632,273.645z" />
	</g>
</svg>